<svg width="24" height="24" viewBox="0 0 24 24" fill="none" xmlns="http://www.w3.org/2000/svg">
<path d="M10.6621 7.42578H13.3381" stroke="black" stroke-linecap="round" stroke-linejoin="round"/>
<path d="M10.6621 15.6016H13.3381" stroke="black" stroke-linecap="round" stroke-linejoin="round"/>
<path d="M12.004 21L12.002 18" stroke="black" stroke-linecap="round" stroke-linejoin="round"/>
<path d="M11.9961 4.99965L11.9951 3" stroke="black" stroke-linecap="round" stroke-linejoin="round"/>
<path d="M12 13L11.998 10" stroke="black" stroke-linecap="round" stroke-linejoin="round"/>
<path d="M17.9211 5.33329C17.7314 5.12118 17.4603 4.99996 17.1757 5L6.49572 5.00137C5.94348 5.00144 5.49585 5.44914 5.49585 6.00137V9.00562C5.49585 9.55796 5.94364 10.0057 6.49598 10.0056L17.1758 10.0043C17.4603 10.0042 17.7313 9.883 17.921 9.67096L19.2648 8.16878C19.6043 7.78916 19.6043 7.21498 19.2648 6.83536L17.9211 5.33329Z" stroke="black" stroke-linecap="round" stroke-linejoin="round"/>
<path d="M6.07878 13.3294C6.26852 13.1173 6.53964 12.9961 6.82423 12.9961L17.5042 12.9975C18.0564 12.9975 18.504 13.4452 18.504 13.9975V17.0017C18.504 17.5541 18.0562 18.0018 17.5039 18.0017L6.82408 18.0003C6.53958 18.0003 6.26856 17.8791 6.07889 17.6671L4.73515 16.1649C4.39558 15.7853 4.39558 15.2111 4.73515 14.8315L6.07878 13.3294Z" stroke="black" stroke-linecap="round" stroke-linejoin="round"/>
</svg>
